HIERARCHY
ROOT RootJoint
{
    OFFSET   0.000000   0.000000   0.000000
    CHANNELS 6 Xposition Yposition Zposition Xrotation Yrotation Zrotation
    JOINT pelvis_lowerback
    {
        OFFSET   0.000000   0.093605   0.000000
        CHANNELS 3 Xrotation Yrotation Zrotation
        JOINT lowerback_torso
        {
            OFFSET   0.000000   0.100000   0.000000
            CHANNELS 3 Xrotation Yrotation Zrotation
            JOINT torso_head
            {
                OFFSET   0.000000   0.282350   0.000000
                CHANNELS 3 Xrotation Yrotation Zrotation
                End Site
                {
                    OFFSET   0.000000   0.192650   0.000000
                }
            }
            JOINT rTorso_Clavicle
            {
                OFFSET  -0.001000   0.157500   0.000000
                CHANNELS 3 Xrotation Yrotation Zrotation
                JOINT rShoulder
                {
                    OFFSET  -0.117647   0.000000   0.000000
                    CHANNELS 3 Xrotation Yrotation Zrotation
                    JOINT rElbow
                    {
                        OFFSET  -0.245000   0.000000   0.000000
                        CHANNELS 3 Xrotation Yrotation Zrotation
                        JOINT rWrist
                        {
                            OFFSET  -0.240000   0.000000   0.000000
                            CHANNELS 3 Xrotation Yrotation Zrotation
                            End Site
                            {
                                OFFSET  -0.116353  -0.002500   0.000000
                            }
                        }
                    }
                }
            }
            JOINT lTorso_Clavicle
            {
                OFFSET   0.001000   0.157500   0.000000
                CHANNELS 3 Xrotation Yrotation Zrotation
                JOINT lShoulder
                {
                    OFFSET   0.117647   0.000000   0.000000
                    CHANNELS 3 Xrotation Yrotation Zrotation
                    JOINT lElbow
                    {
                        OFFSET   0.245000   0.000000   0.000000
                        CHANNELS 3 Xrotation Yrotation Zrotation
                        JOINT lWrist
                        {
                            OFFSET   0.240000   0.000000   0.000000
                            CHANNELS 3 Xrotation Yrotation Zrotation
                            End Site
                            {
                                OFFSET   0.116353  -0.002500   0.000000
                            }
                        }
                    }
                }
            }
        }
    }
    JOINT rHip
    {
        OFFSET  -0.100000  -0.051395   0.000000
        CHANNELS 3 Xrotation Yrotation Zrotation
        JOINT rKnee
        {
            OFFSET   0.000000  -0.410000   0.000000
            CHANNELS 3 Xrotation Yrotation Zrotation
            JOINT rAnkle
            {
                OFFSET   0.000000  -0.390000   0.000000
                CHANNELS 3 Xrotation Yrotation Zrotation
                JOINT rToeJoint
                {
                    OFFSET   0.000000  -0.050000   0.130000
                    CHANNELS 3 Xrotation Yrotation Zrotation
                    End Site
                    {
                        OFFSET  -0.010000   0.002000   0.060000
                    }
                }
            }
        }
    }
    JOINT lHip
    {
        OFFSET   0.100000  -0.051395   0.000000
        CHANNELS 3 Xrotation Yrotation Zrotation
        JOINT lKnee
        {
            OFFSET   0.000000  -0.410000   0.000000
            CHANNELS 3 Xrotation Yrotation Zrotation
            JOINT lAnkle
            {
                OFFSET   0.000000  -0.390000   0.000000
                CHANNELS 3 Xrotation Yrotation Zrotation
                JOINT lToeJoint
                {
                    OFFSET   0.000000  -0.050000   0.130000
                    CHANNELS 3 Xrotation Yrotation Zrotation
                    End Site
                    {
                        OFFSET   0.010000   0.002000   0.060000
                    }
                }
            }
        }
    }
}
MOTION
Frames: 14
Frame Time:   0.008333
 -2.411290   0.441885   3.307283 148.944426  68.517580 -148.830171  36.367976   1.956716   3.825787  25.846894   1.328002   2.169077  -6.601985   1.414375  -2.538119  -1.910184  25.419979   0.575174 -16.277159  22.804186   2.888199   0.000486  17.177974  -0.000680   0.457255   3.073360 -13.983559  -4.121404 -10.102141  -3.386353  -9.173321  -6.579185 -15.905175  -0.029931 -51.113084  -0.019484  -2.298668  -5.981871  15.398050 -88.631950   5.591941 -13.427020 133.922907   0.005649  -0.003043 -46.199267   1.738699   7.427734 -14.151234   0.001075   0.002112 -100.823771   1.768248  -1.833414 124.070646   0.019282   0.017209 -34.071370 -12.229727  -2.265654  -0.171368   0.000128   0.000431
 -2.410074   0.433970   3.307644 151.127542  68.510861 -151.091671  37.014281   1.920126   4.031837  25.728520   1.156249   2.392123  -6.738742   1.566794  -2.627794  -2.006877  25.393037   0.911010 -16.297419  22.181839   3.341291   0.001357  17.445876   0.000169   0.343043   2.771746 -14.056397  -4.342745 -10.549650  -3.197128  -9.573130  -7.138549 -15.331710  -0.027386 -51.421984  -0.017335  -2.136761  -5.963928  15.516418 -88.395242   5.422994 -13.772266 135.197882   0.004170  -0.002123 -46.930985   1.389959   7.362714 -14.121546   0.000888   0.001603 -101.214611   1.711302  -1.787672 125.257649   0.018945   0.016916 -33.974128 -11.943036  -2.101374   0.335359  -0.000171   0.003649
 -2.408944   0.427292   3.307815 153.007953  68.470454 -153.038697  37.576453   1.899147   4.210092  25.597996   0.997868   2.598151  -6.869778   1.714024  -2.717494  -2.080560  25.406840   1.246379 -16.308458  21.629644   3.796267   0.002155  17.712319   0.000817   0.249037   2.551952 -14.032595  -4.563298 -11.023881  -3.002805  -9.954387  -7.709617 -14.792141  -0.025206 -51.726517  -0.015525  -1.964278  -5.999040  15.607767 -88.154054   5.239019 -14.137434 136.265943   0.002545  -0.001619 -47.595456   1.068258   7.301355 -14.062107   0.000756   0.001094 -101.529554   1.667694  -1.805020 126.287582   0.017645   0.015455 -34.080827 -11.840929  -1.960257   0.177033  -0.000041   0.002302
 -2.407867   0.421648   3.307805 154.602405  68.427204 -154.698337  38.059853   1.893244   4.363222  25.454692   0.859064   2.785124  -6.995172   1.852269  -2.804883  -2.139516  25.450290   1.573023 -16.312812  21.136609   4.240922   0.002775  17.970448   0.001324   0.172426   2.394106 -13.955120  -4.772533 -11.492013  -2.809793 -10.310795  -8.267369 -14.287726  -0.023279 -52.020129  -0.013979  -1.784500  -6.086105  15.688163 -87.915529   5.050045 -14.485764 137.162787   0.001138  -0.001352 -48.186717   0.775563   7.246675 -13.999879   0.000646   0.000673 -101.782792   1.622249  -1.850915 127.168514   0.015804   0.013491 -34.183161 -11.753084  -1.826045   0.047072   0.000049   0.001452
 -2.406822   0.416883   3.307622 155.948757  68.389161 -156.110289  38.468860   1.899406   4.498750  25.297240   0.740285   2.955399  -7.114981   1.981568  -2.888543  -2.189741  25.510216   1.885995 -16.312461  20.691520   4.667596   0.003183  18.217880   0.001734   0.108510   2.279854 -13.847939  -4.966448 -11.938843  -2.622068 -10.640815  -8.800047 -13.817137  -0.021552 -52.299212  -0.012653  -1.602922  -6.202656  15.762151 -87.680659   4.861224 -14.812898 137.916172   0.000026  -0.001226 -48.711699   0.508079   7.197899 -13.942982   0.000552   0.000352 -101.979594   1.577745  -1.915198 127.927535   0.013790   0.011399 -34.291986 -11.675968  -1.699432  -0.059173   0.000102   0.000920
 -2.405798   0.412874   3.307281 157.079894  68.359436 -157.307727  38.807561   1.915681   4.621990  25.124323   0.640584   3.111303  -7.229361   2.102446  -2.967677  -2.234958  25.577184   2.182223 -16.308804  20.285732   5.071717   0.003385  18.453159   0.002071   0.053623   2.195388 -13.726497  -5.143871 -12.356405  -2.441120 -10.944846  -9.301681 -13.378059  -0.019995 -52.562045  -0.011516  -1.423712  -6.331707  15.832626 -87.449906   4.675942 -15.118927 138.547544  -0.000795  -0.001179 -49.179290   0.262668   7.154090 -13.892580   0.000472   0.000116 -102.125624   1.536650  -1.993668 128.584435   0.011803   0.009375 -34.413020 -11.611360  -1.580649  -0.145663   0.000128   0.000596
 -2.404788   0.409519   3.306799 158.024472  68.339281 -158.319237  39.080286   1.940575   4.736310  24.935266   0.558678   3.254661  -7.338538   2.215463  -3.041914  -2.277416  25.645122   2.459993 -16.302858  19.912946   5.450912   0.003407  18.675603   0.002348   0.005175   2.131029 -13.600974  -5.305111 -12.740795  -2.267133 -11.224229  -9.769550 -12.967762  -0.018587 -52.808018  -0.010541  -1.249491  -6.462413  15.902169 -87.223661   4.496317 -15.404665 139.074354  -0.001357  -0.001166 -49.596524   0.036890   7.114530 -13.849350   0.000403  -0.000047 -102.226087   1.500140  -2.083941 129.154508   0.009946   0.007523 -34.549018 -11.560011  -1.469519  -0.215831   0.000135   0.000403
 -2.403860   0.408201   3.306318 159.231195  68.468056 -159.615773  39.609529   2.033271   4.779538  24.695292   0.519114   3.413799  -7.423550   2.264223  -3.081008  -2.450105  25.681231   2.687132 -16.300892  19.563630   5.826976   0.004251  19.426468   0.004552  -0.069734   1.744894 -13.199045  -5.515569 -13.220144  -2.069678 -11.365202 -10.250263 -12.532292  -0.016008 -52.937849  -0.008832  -1.063557  -6.456057  15.958572 -86.681785   4.192773 -15.558438 139.292297  -0.001385  -0.000929 -49.853318  -0.185113   7.002776 -13.886349   0.000292   0.000071 -101.875723   1.372408  -2.129953 129.487976   0.008115   0.005967 -34.760970 -11.582553  -1.390511  -0.271783   0.000129   0.000322
 -2.403014   0.408317   3.305785 160.173572  68.588138 -160.661806  40.013064   2.115729   4.791043  24.443285   0.483209   3.554308  -7.492115   2.307091  -3.111649  -2.620433  25.743736   2.885350 -16.301171  19.282539   6.172737   0.004205  20.160229   0.006348  -0.099575   1.554381 -12.790063  -5.706222 -13.695658  -1.878338 -11.490734 -10.719446 -12.127449  -0.013864 -53.060168  -0.007476  -0.886029  -6.429417  15.949090 -86.123009   3.858500 -15.680522 139.289063  -0.001103  -0.000744 -50.011604  -0.383040   6.915022 -13.930731   0.000211   0.000179 -101.413979   1.231989  -2.176313 129.621080   0.006524   0.004732 -34.979823 -11.573555  -1.314611  -0.319202   0.000122   0.000258
 -2.402248   0.409533   3.305204 160.833914  68.686800 -161.433838  40.292051   2.186084   4.790133  24.142220   0.444648   3.669900  -7.560816   2.346826  -3.143032  -2.792846  25.805247   3.045100 -16.304030  19.023716   6.473784   0.003156  20.842779   0.007829  -0.100675   1.490632 -12.347968  -5.876975 -14.143111  -1.698598 -11.602122 -11.164972 -11.753567  -0.012168 -53.179259  -0.006468  -0.709603  -6.427607  15.907747 -85.582050   3.533179 -15.756548 139.115160  -0.000697  -0.000615 -50.090110  -0.559413   6.847810 -13.980724   0.000148   0.000258 -100.901232   1.096278  -2.220140 129.593155   0.005213   0.003800 -35.194788 -11.547230  -1.244653  -0.357578   0.000110   0.000206
 -2.401480   0.411589   3.304597 161.303151  68.761903 -162.019835  40.448728   2.245794   4.771605  23.796672   0.407794   3.768074  -7.626476   2.383523  -3.168845  -2.955100  25.865136   3.189563 -16.305732  18.797281   6.754263   0.001613  21.488077   0.009064  -0.103255   1.418322 -11.970074  -6.029952 -14.560933  -1.527384 -11.700968 -11.584350 -11.406208  -0.010864 -53.293742  -0.005781  -0.535013  -6.445712  15.848528 -85.043283   3.190047 -15.837256 138.814880  -0.000218  -0.000524 -50.121972  -0.716085   6.795455 -14.031960   0.000107   0.000321 -100.340166   0.964724  -2.262677 129.444883   0.004148   0.003109 -35.412336 -11.518263  -1.180415  -0.388466   0.000096   0.000165
 -2.400671   0.414280   3.303983 161.636820  68.812865 -162.473795  40.490994   2.295542   4.737555  23.409898   0.372144   3.851283  -7.692282   2.417832  -3.192158  -3.102495  25.914881   3.327426 -16.303649  18.589626   7.019876  -0.000211  22.099253   0.010092  -0.102162   1.364109 -11.640192  -6.167439 -14.944097  -1.363400 -11.788935 -11.974722 -11.081411  -0.009883 -53.402517  -0.005356  -0.363880  -6.477314  15.783745 -84.498903   2.835812 -15.920112 138.425417   0.000254  -0.000461 -50.111029  -0.855167   6.756510 -14.113572   0.000079   0.000428 -99.740230   0.835519  -2.304915 129.205944   0.003280   0.002583 -35.633030 -11.494118  -1.121031  -0.413560   0.000083   0.000132
 -2.399812   0.417445   3.303367 161.864427  68.844712 -162.821964  40.430384   2.338118   4.690217  22.981531   0.337683   3.917200  -7.759657   2.450005  -3.214862  -3.241079  25.951918   3.452924 -16.300908  18.394107   7.265078  -0.002258  22.670709   0.010937  -0.099706   1.318417 -11.322961  -6.291424 -15.290679  -1.205720 -11.867431 -12.334953 -10.776241  -0.009150 -53.504909  -0.005124  -0.197608  -6.516401  15.721537 -83.954350   2.480763 -15.999743 137.970471   0.000666  -0.000416 -50.060611  -0.979025   6.728525 -14.226510   0.000063   0.000560 -99.112833   0.709657  -2.345413 128.898342   0.002573   0.002173 -35.855473 -11.475115  -1.066251  -0.434037   0.000070   0.000106
 -2.399029   0.422566   3.302672 162.498966  68.958980 -163.518016  40.657133   2.439766   4.628258  22.526273   0.306440   3.978671  -7.793886   2.476499  -3.295356  -3.436421  25.924626   3.477025 -16.209253  18.159519   7.451112  -0.005815  23.673685   0.012608  -0.075423   1.054985 -10.956578  -6.495866 -15.725763  -1.076881 -11.750230 -12.650681 -10.592891  -0.007874 -53.572735  -0.004453   0.028880  -6.511782  15.840931 -83.110388   2.158129 -15.974257 137.253962   0.000780  -0.000542 -49.731793  -1.058284   6.582384 -14.578230  -0.000335   0.000713 -98.021320   0.601202  -2.318279 128.332527   0.001872   0.001836 -36.146359 -11.483335  -1.149168  -0.418090   0.000072   0.000085
